<svg id="logo" xmlns="http://www.w3.org/2000/svg" width="319" height="80" viewBox="0 0 319 80">
  <defs>
    <style>
      .cls-1 {
        fill: #ffffff;
      }
    </style>
  </defs>
  <path id="Artcus" class="cls-1" d="M96.037,77.9q1.838-.172,3.623-0.287T103.4,77.5q2.989,0,6.037.287t6.5,0.287q2.07,0,2.07-1.495a1.451,1.451,0,0,0-.633-1.323,7.212,7.212,0,0,0-1.9-.748,15.419,15.419,0,0,1-4.6-2.013,3.674,3.674,0,0,1-1.5-3.162V49.093q0-6.21,2.3-8.337a7.43,7.43,0,0,1,5.175-2.127,5.252,5.252,0,0,1,2.012.46q1.092,0.461,2.128.92a16.54,16.54,0,0,0,2.07.978,5.369,5.369,0,0,0,1.955.4,4.065,4.065,0,0,0,2.932-1.322,11.05,11.05,0,0,0,2.185-3.163,8.157,8.157,0,0,0,.863-3.45A4.3,4.3,0,0,0,129.329,30a7.71,7.71,0,0,0-5-1.38A11.011,11.011,0,0,0,119.094,30a24.6,24.6,0,0,0-4.887,3.45,32.428,32.428,0,0,0-4.14,4.485q-0.345,0-.345-0.69,0.112-1.493.172-3.392t0.115-3.508q0.057-1.609.058-2.07a0.929,0.929,0,0,0-.92-1.15,2.648,2.648,0,0,0-1.035.345q-0.69.345-1.265,0.69a58.983,58.983,0,0,1-6.785,3.047,73.652,73.652,0,0,1-7.475,2.473,1.68,1.68,0,0,0-1.265,1.84,1.516,1.516,0,0,0,.46,1.208,4.281,4.281,0,0,0,.92.633,4.19,4.19,0,0,1,3.162,2.358,11.5,11.5,0,0,1,.748,4.427V70.023a3.655,3.655,0,0,1-.978,2.7,7.932,7.932,0,0,1-3.392,1.668,8.092,8.092,0,0,0-1.9.8,1.514,1.514,0,0,0-.748,1.38,1.222,1.222,0,0,0,.69,1.093,3.14,3.14,0,0,0,1.61.4Q94.2,78.073,96.037,77.9Zm67.216-.115a24.374,24.374,0,0,0,5.865-3.392q2.243-1.838,2.242-2.415a3.883,3.883,0,0,0-.287-1.495,0.935,0.935,0,0,0-.863-0.69,1.121,1.121,0,0,0-.575.23,17.044,17.044,0,0,1-3.047,1.38,15.8,15.8,0,0,1-4.888.575,6.513,6.513,0,0,1-5.52-2.587q-1.956-2.588-1.955-7.648V39.663a2.58,2.58,0,0,1,.978-2.415,7.859,7.859,0,0,1,3.622-.575H169.75c0.383,0,.708-0.42.978-1.265a9.1,9.1,0,0,0,.4-2.76,4.066,4.066,0,0,0-.345-1.61,1.063,1.063,0,0,0-.69-0.8h-13.57a4.067,4.067,0,0,1-2.127-.46,1.8,1.8,0,0,1-.633-1.84l0.69-6.325a1.5,1.5,0,0,0-.287-1.553,2.3,2.3,0,0,0-1.438-.4,1.765,1.765,0,0,0-1.207.46,16.019,16.019,0,0,1-1.323,1.035q-1.611,1.5-4.025,3.622T141,28.91a28.51,28.51,0,0,1-5.405,3.163,0.864,0.864,0,0,0-.517.517,1.758,1.758,0,0,0-.173.633,5.455,5.455,0,0,0,.46,2.127,1.4,1.4,0,0,0,1.15,1.093h1.265a7.019,7.019,0,0,1,2.933.575,1.518,1.518,0,0,1,.747,1.38V64.963q0,7.016,3.565,10.7t10.465,3.68A19.5,19.5,0,0,0,163.253,77.785Zm41.572-.058a24.094,24.094,0,0,0,6.5-4.14,19.247,19.247,0,0,0,4.083-4.83,6.605,6.605,0,0,0,.92-1.9,5.651,5.651,0,0,0,.23-1.323q0-1.838-1.265-1.84a1.463,1.463,0,0,0-.863.288q-0.4.288-.862,0.632a21.124,21.124,0,0,1-5.233,3.508,14.566,14.566,0,0,1-5.922,1.093,14.916,14.916,0,0,1-8.28-2.3,15.14,15.14,0,0,1-5.52-6.44,22.665,22.665,0,0,1-1.955-9.775q0-8.28,2.645-12.42a8.286,8.286,0,0,1,7.36-4.14,12.015,12.015,0,0,1,5.29,1.61,36.55,36.55,0,0,1,5.98,3.91q0.8,0.69,1.61,1.265a2.9,2.9,0,0,0,1.725.575,3.948,3.948,0,0,0,2.185-.92,9.869,9.869,0,0,0,2.185-2.185,3.9,3.9,0,0,0,.92-2.07,2.885,2.885,0,0,0-1.15-2.07,20.9,20.9,0,0,0-14.72-5.52A23.462,23.462,0,0,0,187.977,32.3a26.918,26.918,0,0,0-12.592,23.115A26.3,26.3,0,0,0,178.2,67.665a21.842,21.842,0,0,0,7.648,8.568,19.563,19.563,0,0,0,10.81,3.1A20.171,20.171,0,0,0,204.825,77.728Zm56.521,2.07q0.747-.232,1.437-0.46,2.99-1.267,7.015-2.587a41.338,41.338,0,0,1,9.2-1.782,2.024,2.024,0,0,0,1.438-.633,2.507,2.507,0,0,0,.4-1.552,1.8,1.8,0,0,0-.575-1.5,2.329,2.329,0,0,0-1.5-.46q-0.576,0-1.9.057c-0.882.04-1.553,0.058-2.013,0.058a1.757,1.757,0,0,1-1.437-1.035,7.922,7.922,0,0,1-.633-3.8V39.433q0-.919.173-2.645t0.345-3.335a13.809,13.809,0,0,1,.287-1.955,2.884,2.884,0,0,0,.288-0.862,5.347,5.347,0,0,0,.057-0.748q0-1.264-1.61-1.265a4.844,4.844,0,0,0-.632.058,4.481,4.481,0,0,0-.748.172,38.7,38.7,0,0,1-4.2.92q-2.13.345-5.233,0.575t-8.165.575a3.653,3.653,0,0,0-1.84.46,1.7,1.7,0,0,0-.805,1.61,2.068,2.068,0,0,0,.69,1.84,4.2,4.2,0,0,0,1.955.575,7.72,7.72,0,0,1,3.163.69,6.245,6.245,0,0,1,2.53,2.013,5.78,5.78,0,0,1,.977,3.508v19.32a9.576,9.576,0,0,1-1.15,5,9.384,9.384,0,0,1-2.07,2.588,8.9,8.9,0,0,1-3.737,2.07,17.27,17.27,0,0,1-4.083.46,7.67,7.67,0,0,1-4.025-1.38,8.488,8.488,0,0,1-2.875-3.45,11.41,11.41,0,0,1-1.035-4.945V39.088a35.41,35.41,0,0,1,.23-4.428q0.23-1.782.575-4.427a1.274,1.274,0,0,0-1.38-1.61,3.837,3.837,0,0,0-.92.115,4.547,4.547,0,0,0-.92.345q-3.795.922-7.13,1.553a58.879,58.879,0,0,1-7.935.862,2.381,2.381,0,0,0-1.207.575,2.1,2.1,0,0,0,0,2.76,2.351,2.351,0,0,0,1.207.575,6.5,6.5,0,0,1,3.68,2.357,7.476,7.476,0,0,1,1.035,4.2v22.08a18.294,18.294,0,0,0,1.668,8.05,13.253,13.253,0,0,0,4.6,5.405,11.653,11.653,0,0,0,6.612,1.955,22,22,0,0,0,10.063-2.415,28.761,28.761,0,0,0,8.337-6.325,2.244,2.244,0,0,0,.058.4,3.263,3.263,0,0,1,.057.633,31.541,31.541,0,0,1-.287,3.68,30.741,30.741,0,0,0-.288,3.565,0.867,0.867,0,0,0,.92,1.035A4.6,4.6,0,0,0,261.346,79.8Zm52.382-4.543a13.767,13.767,0,0,0,4.83-11.1q0-5.865-3.22-9.373t-10.465-7.417a26.818,26.818,0,0,1-5.807-4.025,5.965,5.965,0,0,1-2.013-4.37,5.58,5.58,0,0,1,2.128-4.657,7.543,7.543,0,0,1,4.772-1.668,7.465,7.465,0,0,1,5.29,2.185,16.123,16.123,0,0,1,3.8,6.44,2.482,2.482,0,0,0,1.035.92,3.211,3.211,0,0,0,1.61.46q1.725,0,1.725-1.035a34.411,34.411,0,0,0-.575-6.382,10.114,10.114,0,0,0-1.5-4.2,14.344,14.344,0,0,0-4.082-1.61,25.056,25.056,0,0,0-6.613-.805,21.527,21.527,0,0,0-9.142,1.84,14.707,14.707,0,0,0-6.153,5.06A12.994,12.994,0,0,0,287.163,43a13.092,13.092,0,0,0,1.61,6.613,16.959,16.959,0,0,0,4.428,5,48.03,48.03,0,0,0,6.382,4.14,32.63,32.63,0,0,1,6.153,4.255,6.961,6.961,0,0,1,.4,9.833,6.513,6.513,0,0,1-5.06,2.012,9.271,9.271,0,0,1-6.785-3.047,23.459,23.459,0,0,1-4.945-8.107,2.561,2.561,0,0,0-.805-1.035,2.15,2.15,0,0,0-1.38-.46q-1.956,0-1.955,1.38a58.143,58.143,0,0,0,.4,6.785,16.148,16.148,0,0,0,1.207,5.06,20.188,20.188,0,0,0,6.153,2.933,25.445,25.445,0,0,0,7.072.977Q308.9,79.338,313.728,75.255Z"/>
  <path id="icon" class="cls-1" d="M85,79V77a7.72,7.72,0,0,1-3.4-.8,7.048,7.048,0,0,1-1.459-.96,17.919,17.919,0,0,1-3.8-5.2L43.61,6.193,40.43,0,38.04,5.689a14.7,14.7,0,0,0,.5,12.509h0L63.516,66.8l1.13,2.192A8.132,8.132,0,0,1,65.7,72.648a3.275,3.275,0,0,1-.092.827l0,0.014a0.78,0.78,0,0,1-1.352.279,23.466,23.466,0,0,1-2.39-3.732S44.227,35.917,36.974,21.912c-1.84-3.522-3.009-5.774-3.088-5.894-0.039-.06-0.066-0.12-0.105-0.168l-2.269,5.39a14.6,14.6,0,0,0,.5,12.436h0l4.861,9.465L28.539,62.98l-1.6,3.81c-0.118.3-.25,0.6-0.381,0.887a19.413,19.413,0,0,1-3.193,5.08c-0.3.335-.644,0.659-0.946,0.946-0.223.2-.42,0.383-0.644,0.563a12.2,12.2,0,0,1-2.16,1.433,3.3,3.3,0,0,1-3.422-.26l-0.015-.011a4.85,4.85,0,0,1-1.945-4.133,10.842,10.842,0,0,1,.841-3.846c0.026-.084.066-0.18,0.105-0.276l8.935-21.15a7.588,7.588,0,0,0-.236-6.441h0L12.456,66.79c-0.105.24-.2,0.479-0.3,0.719a20.752,20.752,0,0,1-3.272,5.247c-0.315.335-.644,0.659-0.959,0.946-0.217.2-.463,0.413-0.644,0.563C5.8,75.494,2.319,76.493,0,77v2a43.893,43.893,0,0,0,9,0,69.074,69.074,0,0,1,9-1,62.753,62.753,0,0,1,8,1,43.793,43.793,0,0,0,11,0V77a9.782,9.782,0,0,1-6.333-1.572,5.04,5.04,0,0,1-1.205-1.286,5.231,5.231,0,0,1-.753-2.847,10.172,10.172,0,0,1,.71-3.474c0.079-.216.158-0.431,0.25-0.647l1.222-2.9L38.5,46.292,49.036,66.8l1.13,2.192A8.268,8.268,0,0,1,51.2,72.648a3.275,3.275,0,0,1-.092.827C50.583,75.6,44.028,76.994,44,77v2a49.705,49.705,0,0,0,12.086,0c3.614-.456,6.273-1.1,9.914-1a78.985,78.985,0,0,1,8.062,1A47.915,47.915,0,0,0,85,79Z"/>
</svg>
